<svg width="16" height="14" viewBox="0 0 16 14" fill="none" xmlns="http://www.w3.org/2000/svg"><path fill-rule="evenodd" clip-rule="evenodd" d="M7.986 5.346a2.376 2.376 0 1 0 .001 4.752 2.376 2.376 0 0 0 0-4.752zm6.337-2.376h-1.9a.705.705 0 0 1-.626-.45l-.491-1.475a.706.706 0 0 0-.626-.45H5.294a.705.705 0 0 0-.626.45l-.491 1.474a.707.707 0 0 1-.626.45h-1.9c-.872 0-1.585.713-1.585 1.585v7.128c0 .872.713 1.584 1.584 1.584h12.674c.871 0 1.584-.712 1.584-1.584V4.554a1.59 1.59 0 0 0-1.585-1.584zm-6.337 8.712a3.96 3.96 0 1 1 0-7.92 3.96 3.96 0 0 1 0 7.92zm5.783-6.02a.554.554 0 1 1 .002-1.11.554.554 0 0 1-.002 1.11z" fill="#fff"/></svg>